<svg xmlns="http://www.w3.org/2000/svg" viewBox="0 0 24 24" fill="currentColor"><path fill="currentColor" d="M2 6.8c0-1.68 0-2.52.33-3.16a3 3 0 0 1 1.3-1.31C4.29 2 5.13 2 6.8 2h4.4c1.68 0 2.52 0 3.16.33a3 3 0 0 1 1.31 1.3c.33.65.33 1.49.33 3.17v4.4A11 11 0 0 0 10.04 22H6.8c-1.68 0-2.52 0-3.16-.33a3 3 0 0 1-1.31-1.3C2 19.71 2 18.87 2 17.2z" opacity=".3"/><path fill="currentColor" d="M8 4a1 1 0 0 0 0 2h2a1 1 0 1 0 0-2zm6 17a7 7 0 0 1 7-7 1 1 0 1 0 0-2 9 9 0 0 0-9 9 1 1 0 1 0 2 0"/><path fill="currentColor" d="M18 21a3 3 0 0 1 3-3 1 1 0 1 0 0-2 5 5 0 0 0-5 5 1 1 0 1 0 2 0m2 0a1 1 0 0 1 1-1h.01a1 1 0 1 1 0 2H21a1 1 0 0 1-1-1"/></svg>