<svg width="24" height="24" viewBox="0 0 24 24" fill="none" xmlns="http://www.w3.org/2000/svg">
<path opacity="0.3" fill-rule="evenodd" clip-rule="evenodd" d="M19 11C16.7909 11 15 12.7909 15 15V18C15 20.2091 16.7909 22 19 22C19.7654 22 20.4807 21.785 21.0886 21.4121C21.2456 21.7588 21.5946 22 22 22C22.5523 22 23 21.5523 23 21V12C23 11.4477 22.5523 11 22 11C21.5946 11 21.2456 11.2412 21.0886 11.5879C20.4807 11.215 19.7654 11 19 11ZM21 15V18C21 19.1046 20.1046 20 19 20C17.8954 20 17 19.1046 17 18V15C17 13.8954 17.8954 13 19 13C20.1046 13 21 13.8954 21 15Z" fill="black"/>
<path fill-rule="evenodd" clip-rule="evenodd" d="M8 2C8.43043 2 8.81257 2.27543 8.94868 2.68377L14.9487 20.6838C15.1233 21.2077 14.8402 21.774 14.3162 21.9487C13.7923 22.1233 13.226 21.8402 13.0513 21.3162L10.9459 15H5.05409L2.94868 21.3162C2.77403 21.8402 2.20771 22.1233 1.68377 21.9487C1.15983 21.774 0.876666 21.2077 1.05131 20.6838L7.05131 2.68377C7.18743 2.27543 7.56957 2 8 2ZM5.72076 13H10.2792L8 6.16228L5.72076 13Z" fill="black"/>
</svg>
